<svg version="1.1" id="Calque_1" xmlns="http://www.w3.org/2000/svg" x="0px" y="0px" viewBox="0 0 595.3 420.9" style="enable-background:new 0 0 595.3 420.9" xml:space="preserve"><style>.st1{fill:#0074BC}.st2{fill:#FFFFFF}</style><path d="M97.8,208.4c-0.8-0.5-3.7-1.2-3.7-1.2c-0.4-0.1-0.9-0.2-1.3-0.2c0.7,0.4,1.5,1.2,2.6,2.6	c27.9,34.6,58.3,39.6,59.4,39.8v-24.1C153.8,225.4,123.1,231.1,97.8,208.4" style="fill:#ED1558"/><path class="st1" d="M527.5,216.4c-0.2-1.3-0.2-2.6-0.2-4l-0.1-9.6l0,0h0l0-1.1v-7.7c0-1.8-0.4-3.4-1.2-4.6	c-0.8-1.3-1.9-2.3-3.2-3.1c-1.3-0.8-2.8-1.4-4.4-1.7c-1.6-0.3-3.3-0.5-5-0.5c-1.9,0-3.8,0.2-5.6,0.5c-1.8,0.4-3.5,1-4.9,1.9	c-1.4,0.9-2.6,2.1-3.6,3.5c-0.9,1.5-1.5,3.3-1.6,5.5h7.6c0.2-1.9,1-3.2,2.3-4.1c1.4-0.9,3.1-1.3,5.3-1.3c0.8,0,1.6,0.1,2.4,0.2	c0.8,0.1,1.6,0.3,2.3,0.7c0.7,0.3,1.3,0.8,1.7,1.4c0.5,0.6,0.7,1.4,0.7,2.4c0,1.1-0.3,1.9-0.8,2.5c-0.6,0.6-1.3,1-2.3,1.2	c-0.9,0.3-2,0.5-3.3,0.6c-1.2,0.1-2.5,0.3-3.9,0.6c-1.6,0.2-3.2,0.4-4.8,0.8c-1.6,0.3-3,0.9-4.3,1.6c-1.3,0.8-2.3,1.8-3.1,3.1	c-0.8,1.3-1.2,3.1-1.2,5.2c0,1.7,0.3,3.2,1,4.4c0.6,1.3,1.5,2.3,2.6,3.1c1.1,0.8,2.3,1.4,3.8,1.9c1.4,0.4,2.9,0.6,4.5,0.6	c2,0,4.2-0.3,6.4-1c2.2-0.7,4-1.7,5.5-3.2c0,0.8,0.6,3.1,0.6,3.1h7.5C527.9,218.7,527.6,217.7,527.5,216.4 M519.6,207.9	c0,1.2-0.3,2.2-0.9,3c-0.6,0.8-1.3,1.5-2.2,2c-0.9,0.5-1.8,0.9-2.8,1.1c-1,0.2-1.9,0.3-2.7,0.3c-0.7,0-1.4-0.1-2.2-0.2	c-0.8-0.1-1.6-0.4-2.3-0.7c-0.7-0.3-1.3-0.8-1.8-1.4c-0.5-0.6-0.7-1.3-0.7-2.1c0-1,0.2-1.8,0.5-2.5c0.3-0.7,0.8-1.2,1.4-1.7	c0.6-0.4,1.2-0.8,2-1c0.8-0.2,1.5-0.4,2.3-0.6c1.7-0.3,3.4-0.6,5.1-0.7c1.7-0.2,3.1-0.6,4.3-1.4V207.9z"/><path class="st1" d="M456.8,216.4c-0.2-1.3-0.2-2.6-0.2-4l-0.1-9.6l0,0h0l0-1.1v-7.7c0-1.8-0.4-3.4-1.2-4.6	c-0.8-1.3-1.9-2.3-3.2-3.1c-1.3-0.8-2.8-1.4-4.4-1.7c-1.6-0.3-3.3-0.5-5-0.5c-1.9,0-3.8,0.2-5.6,0.5c-1.8,0.4-3.4,1-4.9,1.9	c-1.4,0.9-2.6,2.1-3.6,3.5c-0.9,1.5-1.5,3.3-1.6,5.5h7.6c0.2-1.9,1-3.2,2.3-4.1c1.4-0.9,3.1-1.3,5.3-1.3c0.8,0,1.6,0.1,2.4,0.2	c0.8,0.1,1.6,0.3,2.3,0.7c0.7,0.3,1.3,0.8,1.7,1.4c0.5,0.6,0.7,1.4,0.7,2.4c0,1.1-0.3,1.9-0.8,2.5c-0.6,0.6-1.3,1-2.3,1.2	c-1,0.3-2,0.5-3.3,0.6c-1.2,0.1-2.6,0.3-3.9,0.6c-1.6,0.2-3.2,0.4-4.8,0.8c-1.6,0.3-3,0.9-4.3,1.6c-1.3,0.8-2.3,1.8-3.1,3.1	c-0.8,1.3-1.2,3.1-1.2,5.2c0,1.7,0.3,3.2,1,4.4c0.6,1.3,1.5,2.3,2.6,3.1c1.1,0.8,2.3,1.4,3.8,1.9c1.4,0.4,2.9,0.6,4.5,0.6	c2,0,4.2-0.3,6.3-1c2.2-0.7,4-1.7,5.5-3.2c0,0.8,0.6,3.1,0.6,3.1h7.5C457.2,218.7,456.9,217.7,456.8,216.4 M448.9,207.9	c0,1.2-0.3,2.2-0.9,3c-0.6,0.8-1.3,1.5-2.2,2c-0.9,0.5-1.8,0.9-2.8,1.1c-1,0.2-1.9,0.3-2.7,0.3c-0.7,0-1.4-0.1-2.2-0.2	c-0.8-0.1-1.6-0.4-2.3-0.7c-0.7-0.3-1.3-0.8-1.8-1.4c-0.5-0.6-0.7-1.3-0.7-2.1c0-1,0.2-1.8,0.5-2.5c0.3-0.7,0.8-1.2,1.4-1.7	c0.6-0.4,1.2-0.8,2-1c0.8-0.2,1.5-0.4,2.3-0.6c1.7-0.3,3.4-0.6,5-0.7c1.7-0.2,3.1-0.6,4.3-1.4V207.9z"/><path class="st1" d="M195.1,171.9l-18.2,47.5h8.6l4.5-12.6h18.9l4.5,12.6h8.9l-18.3-47.5H195.1z M192.1,200.5l7.2-20.4h0.2l7.1,20.4	H192.1z"/><path class="st1" d="M233.5,174.7h-7.6V185h-5.7v5.7h5.7V211c0,1.4,0.2,2.7,0.4,3.8c0.2,1.1,0.7,2,1.4,2.8c0.7,0.7,1.6,1.3,2.9,1.7	c1.2,0.4,2.8,0.6,4.8,0.6c0.8,0,1.7,0,2.5-0.1c0.8-0.1,1.6-0.2,2.5-0.3v-5.9c-0.5,0.1-1.1,0.2-1.6,0.2c-0.5,0-1.1,0-1.6,0	c-0.8,0-1.5-0.1-2-0.3c-0.5-0.2-0.9-0.5-1.1-0.9c-0.2-0.4-0.4-0.9-0.5-1.5c-0.1-0.6-0.1-1.3-0.1-2.1v-18.4h6.9V185h-6.9V174.7z"/><rect x="244" y="171.9" class="st1" width="7.6" height="47.5"/><path class="st1" d="M310.8,184.1c-2.3,0-4.3,0.5-6.2,1.6c-1.9,1.1-3.4,2.6-4.5,4.5l-0.1-0.1V185h-7.2v34.4h7.6v-20.3	c0-1.2,0.2-2.4,0.6-3.5c0.4-1.1,1-2.1,1.7-2.9c0.7-0.8,1.6-1.5,2.6-1.9c1-0.5,2.2-0.7,3.5-0.7c2.3,0,3.9,0.6,5,1.8	c1.1,1.2,1.6,3.2,1.7,5.9v21.6h7.6v-23.6c0-3.9-1.1-6.8-3.3-8.8C317.6,185.1,314.6,184.1,310.8,184.1"/><path class="st1" d="M338.8,174.7h-7.6V185h-5.7v5.7h5.7V211c0,1.4,0.2,2.7,0.4,3.8c0.2,1.1,0.7,2,1.4,2.8c0.7,0.7,1.6,1.3,2.9,1.7	c1.2,0.4,2.8,0.6,4.8,0.6c0.8,0,1.7,0,2.5-0.1c0.8-0.1,1.6-0.2,2.5-0.3v-5.9c-0.5,0.1-1.1,0.2-1.6,0.2c-0.5,0-1.1,0-1.6,0	c-0.8,0-1.5-0.1-2-0.3c-0.5-0.2-0.9-0.5-1.1-0.9c-0.3-0.4-0.4-0.9-0.5-1.5c-0.1-0.6-0.1-1.3-0.1-2.1v-18.4h6.8V185h-6.8V174.7z"/><path class="st1" d="M420.7,198.4c-0.8-1.1-1.7-2-2.9-2.9c-1.2-0.8-2.5-1.5-4.1-2c-0.6-0.2-1.7-0.5-3.1-0.8	c-1.4-0.4-2.9-0.8-4.4-1.2c-1.5-0.4-2.9-0.8-4.1-1.1c-1.2-0.3-1.9-0.5-2.1-0.6c-1.7-0.5-3-1.2-4.1-2.2c-1-0.9-1.6-2.3-1.6-4	c0-1.2,0.3-2.2,0.8-3c0.6-0.8,1.3-1.4,2.1-1.9c0.8-0.5,1.8-0.8,2.8-1c1-0.2,2-0.3,3-0.3c2.9,0,5.3,0.6,7.1,1.9	c1.9,1.3,2.9,3.4,3.1,6.5h8.3c0-2.5-0.5-4.7-1.5-6.6c-1-1.9-2.3-3.5-4-4.8c-1.7-1.3-3.6-2.3-5.8-2.9c-2.2-0.6-4.5-1-7-1	c-2.1,0-4.2,0.3-6.3,0.8c-2.1,0.5-3.9,1.4-5.6,2.6c-1.6,1.2-3,2.6-4,4.4c-1,1.7-1.5,3.8-1.5,6.2c0,1.2,0.2,2.5,0.5,3.7	c0.3,1.2,0.9,2.3,1.7,3.4c0.8,1.1,1.9,2,3.2,2.9c1.4,0.9,3,1.6,5.1,2.1c3.3,0.9,6,1.6,8.3,2.2c2.2,0.5,4.2,1.1,5.9,1.8	c1,0.4,1.9,1,2.7,1.8c0.8,0.9,1.2,2.2,1.2,4c0,0.9-0.2,1.8-0.5,2.6c-0.3,0.9-0.9,1.6-1.7,2.3c-0.8,0.7-1.8,1.2-3.1,1.6	c-1.3,0.4-2.8,0.6-4.7,0.6c-1.7,0-3.2-0.2-4.7-0.6c-1.4-0.4-2.7-1-3.8-1.8c-1.1-0.8-2-1.9-2.6-3.2c-0.6-1.3-0.9-2.8-0.9-4.7h-8.3	c0,2.9,0.6,5.5,1.7,7.6c1.1,2.2,2.5,3.9,4.3,5.3c1.8,1.4,3.9,2.4,6.3,3.1c2.4,0.7,4.9,1,7.6,1c2.3,0,4.7-0.3,6.9-0.8	c2.3-0.5,4.3-1.4,6.1-2.6c1.8-1.2,3.2-2.7,4.3-4.6c1.1-1.9,1.6-4.2,1.6-6.8c0-1.2-0.2-2.5-0.6-3.7	C422.1,200.7,421.5,199.5,420.7,198.4"/><path class="st1" d="M480.2,184.1c-2.3,0-4.3,0.5-6.2,1.6c-1.9,1.1-3.4,2.6-4.5,4.5l-0.1-0.1V185h-7.2v34.4h7.6v-20.3	c0-1.2,0.2-2.4,0.6-3.5c0.4-1.1,0.9-2.1,1.7-2.9c0.7-0.8,1.6-1.5,2.6-1.9c1-0.5,2.2-0.7,3.5-0.7c2.3,0,3.9,0.6,5,1.8	c1.1,1.2,1.6,3.2,1.7,5.9v21.6h7.6v-23.6c0-3.9-1.1-6.8-3.3-8.8C487,185.1,484,184.1,480.2,184.1"/><path class="st1" d="M558.2,171.9v17.6H558c-0.6-0.9-1.3-1.7-2.2-2.4c-0.9-0.7-1.8-1.2-2.8-1.7c-1-0.4-2.1-0.8-3.2-1	c-1.1-0.2-2.2-0.3-3.3-0.3c-1.9,0-3.7,0.3-5.5,1c-1.8,0.7-3.4,1.8-4.8,3.2c-1.4,1.5-2.5,3.3-3.4,5.6c-0.8,2.3-1.3,4.9-1.3,8.1	c0,2.6,0.3,5,1,7.2c0.7,2.2,1.7,4.2,3,5.8c1.3,1.6,3,2.9,5,3.9c2,1,4.4,1.4,7.1,1.4c2.2,0,4.2-0.4,6.2-1.3c2-0.9,3.4-2.3,4.5-4.3	h0.1v4.7h7.2v-47.5H558.2z M556.9,206.3c-0.4,1.4-0.9,2.6-1.7,3.7c-0.8,1.1-1.8,2-3,2.6c-1.2,0.7-2.7,1-4.3,1c-1.6,0-3-0.3-4.3-0.9	c-1.2-0.6-2.2-1.5-2.9-2.5c-0.8-1-1.4-2.2-1.7-3.6c-0.4-1.3-0.6-2.7-0.6-4.1c0-1.5,0.2-2.9,0.5-4.3c0.3-1.4,0.9-2.7,1.7-3.8	c0.8-1.1,1.8-2,3-2.7c1.2-0.7,2.7-1,4.5-1c2.9,0,5.2,1,6.9,3c1.7,2,2.6,4.8,2.6,8.4C557.5,203.6,557.3,205,556.9,206.3"/><path class="st1" d="M379.5,216.4c-0.2-1.3-0.2-2.6-0.2-4l-0.1-9.6v0v-1.1v-7.7c0-1.8-0.4-3.4-1.2-4.6c-0.8-1.3-1.9-2.3-3.2-3.1	c-1.3-0.8-2.8-1.4-4.4-1.7c-1.6-0.3-3.3-0.5-5-0.5c-1.9,0-3.8,0.2-5.6,0.5c-1.8,0.4-3.4,1-4.9,1.9c-1.4,0.9-2.6,2.1-3.6,3.5	c-0.9,1.5-1.5,3.3-1.6,5.5h7.6c0.2-1.9,1-3.2,2.3-4.1c1.4-0.9,3.1-1.3,5.3-1.3c0.8,0,1.6,0.1,2.4,0.2c0.8,0.1,1.6,0.3,2.3,0.7	c0.7,0.3,1.3,0.8,1.7,1.4c0.5,0.6,0.7,1.4,0.7,2.4c0,1.1-0.3,1.9-0.8,2.5c-0.6,0.6-1.3,1-2.3,1.2c-0.9,0.3-2,0.5-3.3,0.6	c-1.2,0.1-2.6,0.3-3.9,0.6c-1.6,0.2-3.2,0.4-4.8,0.8c-1.6,0.3-3,0.9-4.3,1.6c-1.3,0.8-2.3,1.8-3.1,3.1c-0.8,1.3-1.2,3.1-1.2,5.2	c0,1.7,0.3,3.2,1,4.4c0.6,1.3,1.5,2.3,2.6,3.1c1.1,0.8,2.3,1.4,3.8,1.9c1.4,0.4,2.9,0.6,4.5,0.6c2,0,4.2-0.3,6.4-1	c2.2-0.7,4-1.7,5.5-3.2c0,0.8,0.6,3.1,0.6,3.1h7.5C379.9,218.7,379.6,217.7,379.5,216.4 M371.6,207.9c0,1.2-0.3,2.2-0.9,3	c-0.6,0.8-1.3,1.5-2.2,2c-0.9,0.5-1.8,0.9-2.8,1.1c-1,0.2-1.9,0.3-2.7,0.3c-0.7,0-1.4-0.1-2.2-0.2c-0.8-0.1-1.6-0.4-2.3-0.7	c-0.7-0.3-1.3-0.8-1.8-1.4c-0.5-0.6-0.7-1.3-0.7-2.1c0-1,0.2-1.8,0.5-2.5c0.3-0.7,0.8-1.2,1.4-1.7c0.6-0.4,1.2-0.8,2-1	c0.8-0.2,1.5-0.4,2.3-0.6c1.7-0.3,3.4-0.6,5.1-0.7c1.7-0.2,3.1-0.6,4.3-1.4V207.9z"/><path class="st1" d="M286.4,216.4c-0.2-1.3-0.2-2.6-0.2-4l-0.1-9.6l0,0h0l0-1.1v-7.7c0-1.8-0.4-3.4-1.2-4.6	c-0.8-1.3-1.9-2.3-3.2-3.1c-1.3-0.8-2.8-1.4-4.4-1.7c-1.6-0.3-3.3-0.5-5-0.5c-1.9,0-3.8,0.2-5.6,0.5c-1.8,0.4-3.5,1-4.9,1.9	c-1.4,0.9-2.6,2.1-3.6,3.5c-0.9,1.5-1.5,3.3-1.6,5.5h7.6c0.2-1.9,1-3.2,2.3-4.1c1.4-0.9,3.1-1.3,5.3-1.3c0.8,0,1.6,0.1,2.4,0.2	c0.8,0.1,1.6,0.3,2.3,0.7c0.7,0.3,1.3,0.8,1.7,1.4c0.5,0.6,0.7,1.4,0.7,2.4c0,1.1-0.3,1.9-0.8,2.5c-0.6,0.6-1.3,1-2.3,1.2	c-0.9,0.3-2,0.5-3.3,0.6c-1.2,0.1-2.5,0.3-3.9,0.6c-1.6,0.2-3.2,0.4-4.8,0.8c-1.6,0.3-3,0.9-4.3,1.6c-1.3,0.8-2.3,1.8-3.1,3.1	c-0.8,1.3-1.2,3.1-1.2,5.2c0,1.7,0.3,3.2,1,4.4c0.6,1.3,1.5,2.3,2.6,3.1c1.1,0.8,2.3,1.4,3.8,1.9c1.4,0.4,2.9,0.6,4.5,0.6	c2,0,4.2-0.3,6.3-1c2.2-0.7,4-1.7,5.5-3.2c0,0.8,0.6,3.1,0.6,3.1h7.6C286.8,218.7,286.5,217.7,286.4,216.4 M278.5,207.9	c0,1.2-0.3,2.2-0.9,3c-0.6,0.8-1.3,1.5-2.2,2c-0.9,0.5-1.8,0.9-2.8,1.1c-1,0.2-1.9,0.3-2.7,0.3c-0.7,0-1.4-0.1-2.2-0.2	c-0.8-0.1-1.6-0.4-2.3-0.7c-0.7-0.3-1.3-0.8-1.8-1.4c-0.5-0.6-0.7-1.3-0.7-2.1c0-1,0.2-1.8,0.5-2.5c0.3-0.7,0.8-1.2,1.4-1.7	c0.6-0.4,1.2-0.8,2-1c0.8-0.2,1.5-0.4,2.3-0.6c1.7-0.3,3.4-0.6,5.1-0.7c1.7-0.2,3.1-0.6,4.3-1.4V207.9z"/><path class="st1" d="M287,233.9l-7.1,18.3h2.9l2-5.4h6.8l2,5.4h2.9l-7-18.3H287z M285.7,244.3l2.5-6.7l2.4,6.7H285.7z"/><path class="st1" d="M314.1,243.6c-0.5-0.4-1-0.7-1.5-1c-0.6-0.3-1.2-0.5-1.7-0.6l-4.1-1.1c-0.3-0.1-0.6-0.1-0.9-0.3	c-0.2-0.1-0.4-0.2-0.6-0.4c-0.2-0.2-0.3-0.4-0.4-0.6c-0.1-0.3-0.2-0.5-0.2-0.9c0-0.5,0.1-1,0.3-1.3c0.2-0.4,0.4-0.6,0.8-0.9	c0.4-0.2,0.7-0.4,1.2-0.5c0.9-0.2,2.1-0.2,3,0.1c0.5,0.2,0.9,0.4,1.3,0.6c0.3,0.3,0.6,0.6,0.9,1c0.2,0.5,0.4,1,0.4,1.5l0,0.5h2.7	v-0.6c0-0.9-0.2-1.8-0.6-2.6c-0.3-0.7-0.8-1.3-1.5-1.9c-0.6-0.5-1.3-0.8-2.2-1.1c-0.8-0.2-1.6-0.4-2.5-0.4c-1.3,0-2.3,0.2-3.1,0.6	c-0.8,0.4-1.5,0.8-2,1.4c-0.5,0.6-0.8,1.2-1,1.8c-0.2,0.6-0.2,1.1-0.2,1.6c0,0.8,0.1,1.4,0.4,1.9c0.2,0.5,0.6,1,0.9,1.3	c0.4,0.4,0.8,0.6,1.4,0.9c0.5,0.2,1,0.4,1.5,0.5l3.7,1c0.3,0.1,0.7,0.2,1.1,0.3c0.4,0.1,0.7,0.3,1,0.5c0.3,0.2,0.5,0.5,0.7,0.8	c0.2,0.2,0.2,0.5,0.2,1c0,0.5-0.1,0.9-0.3,1.3c-0.3,0.4-0.6,0.7-1,0.9c-0.4,0.3-0.8,0.4-1.3,0.5c-1.3,0.3-2.2,0.2-3.3,0	c-0.6-0.2-1.1-0.4-1.6-0.7c-0.4-0.3-0.7-0.7-1-1.2v0c-0.2-0.5-0.4-1.2-0.3-2l0-0.6h-2.7l0,0.5c0,1.1,0.1,2.1,0.4,3	c0.4,0.8,0.9,1.5,1.5,2.1c0.6,0.5,1.4,0.9,2.4,1.2c0.9,0.3,1.8,0.4,2.9,0.4c1,0,1.9-0.1,2.7-0.3c0.8-0.2,1.4-0.5,1.9-0.8	c0.5-0.3,1-0.7,1.3-1.1c0.3-0.5,0.6-0.9,0.7-1.2c0.2-0.4,0.3-0.8,0.3-1.2l0-0.2c0-0.2,0.1-0.4,0.1-0.6c0-0.8-0.1-1.4-0.4-2	C314.9,244.5,314.5,244,314.1,243.6"/><path class="st1" d="M334.4,243.6c-0.5-0.4-1-0.7-1.5-1c-0.6-0.3-1.2-0.5-1.7-0.6l-4.1-1.1c-0.3-0.1-0.6-0.1-0.9-0.3	c-0.2-0.1-0.5-0.3-0.6-0.4c-0.2-0.2-0.3-0.4-0.4-0.6c-0.1-0.2-0.2-0.5-0.2-0.8c0-0.5,0.1-1,0.3-1.4c0.2-0.3,0.4-0.6,0.7-0.8	c0.3-0.2,0.7-0.4,1.2-0.5c0.9-0.2,2.1-0.2,3,0c0.5,0.2,0.9,0.4,1.3,0.7c0.4,0.3,0.6,0.6,0.9,1c0.2,0.4,0.3,0.9,0.4,1.5l0,0.5h2.7	v-0.5c0-1-0.2-1.8-0.6-2.6c-0.4-0.7-0.9-1.3-1.5-1.9c-0.6-0.5-1.3-0.9-2.2-1.1c-0.8-0.2-1.6-0.4-2.5-0.4c-1.3,0-2.3,0.2-3.1,0.6	c-0.8,0.4-1.4,0.8-2,1.4c-0.5,0.6-0.8,1.2-1,1.8c-0.2,0.6-0.3,1.1-0.3,1.6c0,0.7,0.1,1.4,0.4,2c0.3,0.5,0.6,1,1,1.3	c0.4,0.3,0.8,0.6,1.4,0.9c0.5,0.2,1,0.3,1.5,0.5l3.7,1c0.3,0.1,0.7,0.2,1.1,0.3c0.4,0.1,0.7,0.3,1,0.5c0.3,0.2,0.5,0.5,0.7,0.7	c0.2,0.3,0.2,0.6,0.2,1c0,0.5-0.1,0.9-0.4,1.3c-0.3,0.4-0.6,0.7-0.9,0.9c-0.4,0.3-0.9,0.4-1.3,0.5c-0.5,0.1-0.9,0.2-1.3,0.2	c-0.6,0-1.3-0.1-2-0.2c-0.6-0.1-1.1-0.4-1.5-0.7c-0.4-0.3-0.8-0.7-1-1.2c-0.2-0.5-0.3-1.2-0.3-2v-0.5h-2.7l0,0.5	c0,1.2,0.1,2.2,0.5,3c0.4,0.9,0.9,1.5,1.5,2c0.6,0.5,1.4,0.9,2.4,1.2c0.9,0.3,1.8,0.4,2.9,0.4c1,0,1.9-0.1,2.7-0.3	c0.7-0.2,1.4-0.5,1.9-0.8c0.5-0.3,0.9-0.7,1.3-1.1c0.3-0.4,0.5-0.8,0.7-1.2c0.2-0.4,0.3-0.8,0.3-1.2c0-0.3,0.1-0.6,0.1-0.8	c0-0.8-0.1-1.5-0.4-2C335.2,244.5,334.9,244,334.4,243.6"/><path class="st1" d="M354.1,245.1c0,0.9-0.1,1.7-0.3,2.4c-0.2,0.6-0.5,1.1-0.8,1.5c-0.4,0.4-0.8,0.7-1.3,0.8	c-0.6,0.2-1.2,0.3-1.9,0.3c-0.7,0-1.3-0.1-1.9-0.3c-0.5-0.2-1-0.4-1.3-0.8c-0.4-0.4-0.6-0.9-0.8-1.5c-0.2-0.7-0.3-1.5-0.3-2.4v-11.2	h-2.7v11.6c0,0.9,0.1,1.8,0.4,2.7c0.3,0.8,0.7,1.6,1.3,2.3c0.6,0.7,1.3,1.2,2.2,1.6c0.9,0.4,2,0.6,3.2,0.6c1.2,0,2.3-0.2,3.2-0.6	c0.9-0.4,1.7-0.9,2.2-1.6c0.6-0.7,1-1.4,1.2-2.3c0.3-0.8,0.4-1.7,0.4-2.7v-11.6h-2.7V245.1z"/><path class="st1" d="M378.3,250.6c-0.1-0.4-0.2-0.7-0.2-1.1c0-0.4-0.1-0.8-0.1-1.2l-0.1-1.1c0-0.6-0.1-1.1-0.2-1.5	c-0.1-0.5-0.3-1-0.6-1.4c-0.3-0.4-0.6-0.8-1.1-1c0,0,0,0,0,0c0.5-0.3,1-0.7,1.3-1.2c0.6-0.9,0.9-1.9,0.9-3.2c0-0.9-0.2-1.6-0.5-2.2	c-0.3-0.7-0.7-1.2-1.3-1.6c-0.5-0.4-1.1-0.7-1.8-0.9c-0.6-0.2-1.3-0.3-2.1-0.3h-8.2v18.3h2.7v-7.6l5.6,0c0.5,0,1,0.1,1.3,0.3	c0.4,0.2,0.6,0.5,0.8,0.9c0.2,0.4,0.3,0.9,0.4,1.4c0.1,0.6,0.1,1.2,0.1,1.8c0,0.1,0,0.2,0,0.3c0,0.1,0,0.2,0,0.4c0,0.1,0,0.3,0,0.4	l0,0.3c0,0.3,0.1,0.5,0.1,0.7c0,0.2,0.1,0.5,0.3,0.8l0.2,0.3h3.4l-0.9-0.9C378.4,251.1,378.3,250.7,378.3,250.6 M375.3,240.4	c-0.2,0.3-0.4,0.6-0.6,0.9c-0.3,0.2-0.6,0.4-0.9,0.6c-0.4,0.1-0.8,0.2-1.2,0.2h-5.4v-5.7h5.4c1.1,0,1.8,0.2,2.3,0.7	c0.5,0.5,0.7,1.2,0.7,2.1C375.5,239.7,375.5,240.1,375.3,240.4"/><path class="st1" d="M390.7,233.9l-7.1,18.3h2.9l2-5.4h6.8l2,5.4h2.9l-7-18.3H390.7z M389.3,244.3l2.5-6.7l2.4,6.7H389.3z"/><polygon class="st1" points="417.4,247.2 408.5,233.9 405.9,233.9 405.9,252.2 408.6,252.2 408.6,238.8 417.5,252.2 420.1,252.2 420.1,233.9 417.4,233.9"/><path class="st1" d="M440.4,245c-0.1,0.8-0.2,1.4-0.5,2c-0.2,0.6-0.6,1.1-1,1.6c-0.4,0.4-0.9,0.8-1.5,1c-0.5,0.3-1.1,0.4-1.9,0.4	c-1,0-1.9-0.2-2.6-0.6c-0.7-0.4-1.3-0.9-1.8-1.6c-0.5-0.6-0.8-1.4-1-2.3c-0.2-0.8-0.4-1.7-0.4-2.6c0-0.9,0.1-1.8,0.4-2.6	c0.2-0.8,0.6-1.6,1-2.2c0.5-0.7,1.1-1.2,1.8-1.6c0.7-0.4,1.6-0.6,2.6-0.6c0.6,0,1.1,0.1,1.6,0.3c0.5,0.2,0.9,0.4,1.4,0.7	c0.4,0.3,0.8,0.7,1,1.2c0.3,0.5,0.5,1,0.6,1.6l0.1,0.4h2.7l-0.1-0.6c-0.1-1-0.4-1.8-0.9-2.6c-0.4-0.8-1-1.4-1.7-1.9	c-0.7-0.5-1.4-0.9-2.2-1.1c-2.3-0.7-4.5-0.4-6.2,0.4c-1.1,0.5-1.9,1.2-2.7,2.1c-0.7,0.9-1.2,1.9-1.6,3c-0.4,1.2-0.5,2.3-0.5,3.6	c0,1.2,0.2,2.4,0.5,3.5c0.3,1.1,0.9,2.1,1.6,3c0.8,0.9,1.6,1.6,2.6,2.1c1.1,0.5,2.3,0.8,3.7,0.8c1,0,2-0.2,2.9-0.5	c0.9-0.3,1.6-0.8,2.3-1.5c0.6-0.6,1.2-1.4,1.6-2.3c0.4-1,0.7-2,0.8-3l0.1-0.6h-2.7L440.4,245z"/><polygon class="st1" points="452.7,244 462,244 462,241.5 452.7,241.5 452.7,236.4 462.6,236.4 462.6,233.9 450,233.9 450,252.2 462.7,252.2 462.7,249.7 452.7,249.7"/><path class="st1" d="M95.5,209.6c-1.1-1.3-1.9-2.2-2.6-2.6c-0.3,0-0.6-0.1-0.9-0.1c-0.5-0.1-1,0-1.5,0c0,0,0,0,0,0l0,0	c-0.4,0.1-0.9,0.2-1.3,0.3c-1,0.3-1.9,0.8-2.7,1.4c-1.2,0.8-2.3,1.7-3.3,2.8c-0.3,0.3-0.6,0.7-0.9,1c-0.3,0.4-0.6,0.8-0.9,1.2	c-2.3,3.3-4.3,6.7-6.6,10.1c-0.7,1-1.3,1.9-2,2.9c-1.6,2.1-3.2,4.2-5,6.2c-2.9,3.3-6.1,6.3-9.7,8.9c-2.6,1.9-5.3,3.5-8.2,4.7	c-4.3,1.8-8.9,2.8-13.9,2.7c-1.7,0-3.3-0.2-4.9-0.5v24.8h123.7v-24.1C153.8,249.2,123.4,244.2,95.5,209.6"/><path class="st1" d="M53,215c1-1.5,2-3,2.9-4.6c2.8-4.5,5.4-9.2,8.1-13.8c0.6-1,1.2-2.1,1.8-3.1c0.2-0.3,0.3-0.6,0.5-0.8	c4.2-7.2,11.3-5.4,15.2-1.4c1.8,1.9,3.5,3.7,5.3,5.6c2.7,2.8,5.3,5.7,8,8.5c0.3,0.3,0.6,0.7,0.9,1c0.7,0.7,1.5,1.4,2.3,2.1	c0,0-0.1-0.1-0.1-0.1c25.3,22.7,56,17,57,16.8v-75.5H31.1v82c3.6-1,6.9-2.6,9.9-4.5C45.7,224.2,49.7,220,53,215 M75.9,161.7l9,9	l-9,8.9l-9-8.9L75.9,161.7z"/><polygon class="st2" points="84.8,170.6 75.9,161.7 66.9,170.6 75.9,179.6"/><path class="st2" d="M95.7,206.4c-0.3-0.3-0.6-0.6-0.9-1c-2.7-2.8-5.3-5.7-8-8.5c-1.8-1.9-3.5-3.7-5.3-5.6c-3.8-4.1-11-5.8-15.2,1.4	c-0.2,0.3-0.3,0.5-0.5,0.8c-0.6,1-1.2,2.1-1.8,3.1c-2.7,4.6-5.3,9.2-8.1,13.8c-1,1.5-1.9,3.1-2.9,4.6c-3.3,5-7.3,9.2-12,12.3	c-3,2-6.3,3.5-9.9,4.5v16.9c1.6,0.3,3.2,0.5,4.9,0.5c5,0.1,9.6-0.8,13.9-2.7c2.8-1.2,5.6-2.8,8.2-4.7c3.6-2.6,6.8-5.6,9.7-8.9	c1.8-2,3.4-4.1,5-6.2c0.7-0.9,1.4-1.9,2-2.9c2.3-3.3,4.3-6.8,6.6-10c0.3-0.4,0.6-0.8,0.9-1.2c0.3-0.3,0.6-0.7,0.9-1	c1-1.1,2-2,3.3-2.8c0.8-0.6,1.7-1.1,2.7-1.4c0.5-0.2,0.9-0.3,1.3-0.3l0,0c0,0,0,0,0,0c0.5-0.1,1-0.1,1.5,0c0.3,0,0.6,0,0.9,0.1	c0.4,0,0.8,0.1,1.3,0.2c0,0,2.9,0.7,3.7,1.1c0.1,0,0.1,0.1,0.1,0.1C97.2,207.8,96.4,207.1,95.7,206.4"/></svg>