<?xml version="1.0" encoding="UTF-8"?>
<svg id="b" data-name="Layer_2" xmlns="http://www.w3.org/2000/svg" viewBox="0 0 534.5 123.7">
  <defs>
    <style>
      .d {
        fill: #fff;
      }
    </style>
  </defs>
  <g id="c" data-name="Calque_1">
    <path class="d" d="M66.9,58.9s-.07-.07-.1-.1c.01,0,.02.01.02.01.02.02.05.04.07.06.01.02.01.03.01.03Z"/>
    <path class="d" d="M496.4,66.7c-.2-1.3-.2-2.6-.2-4l-.1-9.6v-8.8c0-1.8-.4-3.4-1.2-4.6-.8-1.3-1.9-2.3-3.2-3.1-1.3-.8-2.8-1.4-4.4-1.7-1.6-.3-3.3-.5-5-.5-1.9,0-3.8.2-5.6.5-1.8.4-3.5,1-4.9,1.9-1.4.9-2.6,2.1-3.6,3.5-.9,1.5-1.5,3.3-1.6,5.5h7.6c.2-1.9,1-3.2,2.3-4.1,1.4-.9,3.1-1.3,5.3-1.3.8,0,1.6.1,2.4.2.8.1,1.6.3,2.3.7.7.3,1.3.8,1.7,1.4.5.6.7,1.4.7,2.4,0,1.1-.3,1.9-.8,2.5-.6.6-1.3,1-2.3,1.2-.9.3-2,.5-3.3.6-1.2.1-2.5.3-3.9.6-1.6.2-3.2.4-4.8.8-1.6.3-3,.9-4.3,1.6-1.3.8-2.3,1.8-3.1,3.1s-1.2,3.1-1.2,5.2c0,1.7.3,3.2,1,4.4.6,1.3,1.5,2.3,2.6,3.1,1.1.8,2.3,1.4,3.8,1.9,1.4.4,2.9.6,4.5.6,2,0,4.2-.3,6.4-1,2.2-.7,4-1.7,5.5-3.2,0,.8.6,3.1.6,3.1h7.5c-.3-.6-.6-1.6-.7-2.9ZM488.5,58.2c0,1.2-.3,2.2-.9,3s-1.3,1.5-2.2,2c-.9.5-1.8.9-2.8,1.1-1,.2-1.9.3-2.7.3-.7,0-1.4-.1-2.2-.2-.8-.1-1.6-.4-2.3-.7s-1.3-.8-1.8-1.4c-.5-.6-.7-1.3-.7-2.1,0-1,.2-1.8.5-2.5s.8-1.2,1.4-1.7c.6-.4,1.2-.8,2-1s1.5-.4,2.3-.6c1.7-.3,3.4-.6,5.1-.7,1.7-.2,3.1-.6,4.3-1.4v5.9Z"/>
    <path class="d" d="M425.7,66.7c-.2-1.3-.2-2.6-.2-4l-.1-9.6v-8.8c0-1.8-.4-3.4-1.2-4.6-.8-1.3-1.9-2.3-3.2-3.1-1.3-.8-2.8-1.4-4.4-1.7s-3.3-.5-5-.5c-1.9,0-3.8.2-5.6.5-1.8.4-3.4,1-4.9,1.9-1.4.9-2.6,2.1-3.6,3.5-.9,1.5-1.5,3.3-1.6,5.5h7.6c.2-1.9,1-3.2,2.3-4.1,1.4-.9,3.1-1.3,5.3-1.3.8,0,1.6.1,2.4.2.8.1,1.6.3,2.3.7.7.3,1.3.8,1.7,1.4.5.6.7,1.4.7,2.4,0,1.1-.3,1.9-.8,2.5-.6.6-1.3,1-2.3,1.2-1,.3-2,.5-3.3.6-1.2.1-2.6.3-3.9.6-1.6.2-3.2.4-4.8.8-1.6.3-3,.9-4.3,1.6-1.3.8-2.3,1.8-3.1,3.1-.8,1.3-1.2,3.1-1.2,5.2,0,1.7.3,3.2,1,4.4.6,1.3,1.5,2.3,2.6,3.1s2.3,1.4,3.8,1.9c1.4.4,2.9.6,4.5.6,2,0,4.2-.3,6.3-1,2.2-.7,4-1.7,5.5-3.2,0,.8.6,3.1.6,3.1h7.5c-.2-.6-.5-1.6-.6-2.9ZM416.9,61.2c-.6.8-1.3,1.5-2.2,2-.9.5-1.8.9-2.8,1.1-1,.2-1.9.3-2.7.3-.7,0-1.4-.1-2.2-.2-.8-.1-1.6-.4-2.3-.7-.7-.3-1.3-.8-1.8-1.4-.5-.6-.7-1.3-.7-2.1,0-1,.2-1.8.5-2.5.3-.7.8-1.2,1.4-1.7.6-.4,1.2-.8,2-1s1.5-.4,2.3-.6c1.7-.3,3.4-.6,5-.7,1.7-.2,3.1-.6,4.3-1.4v5.9h.1c0,1.2-.3,2.2-.9,3Z"/>
    <path class="d" d="M172.9,22.2h-8.9l-18.2,47.5h8.6l4.5-12.6h18.9l4.5,12.6h8.9l-18.3-47.5ZM161,50.8l7.2-20.4h.2l7.1,20.4h-14.5Z"/>
    <path class="d" d="M202.4,25h-7.6v10.3h-5.7v5.7h5.7v20.3c0,1.4.2,2.7.4,3.8s.7,2,1.4,2.8c.7.7,1.6,1.3,2.9,1.7,1.2.4,2.8.6,4.8.6.8,0,1.7,0,2.5-.1s1.6-.2,2.5-.3v-5.9c-.5.1-1.1.2-1.6.2h-1.6c-.8,0-1.5-.1-2-.3s-.9-.5-1.1-.9c-.2-.4-.4-.9-.5-1.5s-.1-1.3-.1-2.1v-18.4h6.9v-5.6h-6.9v-10.3h0Z"/>
    <rect class="d" x="212.9" y="22.2" width="7.6" height="47.5"/>
    <path class="d" d="M279.7,34.4c-2.3,0-4.3.5-6.2,1.6-1.9,1.1-3.4,2.6-4.5,4.5l-.1-.1v-5.1h-7.2v34.4h7.6v-20.3c0-1.2.2-2.4.6-3.5s1-2.1,1.7-2.9c.7-.8,1.6-1.5,2.6-1.9,1-.5,2.2-.7,3.5-.7,2.3,0,3.9.6,5,1.8s1.6,3.2,1.7,5.9v21.6h7.6v-23.6c0-3.9-1.1-6.8-3.3-8.8-2.2-1.9-5.2-2.9-9-2.9h0Z"/>
    <path class="d" d="M307.7,25h-7.6v10.3h-5.7v5.7h5.7v20.3c0,1.4.2,2.7.4,3.8.2,1.1.7,2,1.4,2.8.7.7,1.6,1.3,2.9,1.7,1.2.4,2.8.6,4.8.6.8,0,1.7,0,2.5-.1s1.6-.2,2.5-.3v-5.9c-.5.1-1.1.2-1.6.2h-1.6c-.8,0-1.5-.1-2-.3s-.9-.5-1.1-.9c-.3-.4-.4-.9-.5-1.5s-.1-1.3-.1-2.1v-18.4h6.8v-5.6h-6.8v-10.3h0Z"/>
    <path class="d" d="M389.6,48.7c-.8-1.1-1.7-2-2.9-2.9-1.2-.8-2.5-1.5-4.1-2-.6-.2-1.7-.5-3.1-.8-1.4-.4-2.9-.8-4.4-1.2s-2.9-.8-4.1-1.1-1.9-.5-2.1-.6c-1.7-.5-3-1.2-4.1-2.2-1-.9-1.6-2.3-1.6-4,0-1.2.3-2.2.8-3,.6-.8,1.3-1.4,2.1-1.9.8-.5,1.8-.8,2.8-1s2-.3,3-.3c2.9,0,5.3.6,7.1,1.9,1.9,1.3,2.9,3.4,3.1,6.5h8.3c0-2.5-.5-4.7-1.5-6.6-1-1.9-2.3-3.5-4-4.8s-3.6-2.3-5.8-2.9c-2.2-.6-4.5-1-7-1-2.1,0-4.2.3-6.3.8-2.1.5-3.9,1.4-5.6,2.6-1.6,1.2-3,2.6-4,4.4-1,1.7-1.5,3.8-1.5,6.2,0,1.2.2,2.5.5,3.7s.9,2.3,1.7,3.4c.8,1.1,1.9,2,3.2,2.9,1.4.9,3,1.6,5.1,2.1,3.3.9,6,1.6,8.3,2.2,2.2.5,4.2,1.1,5.9,1.8,1,.4,1.9,1,2.7,1.8.8.9,1.2,2.2,1.2,4,0,.9-.2,1.8-.5,2.6-.3.9-.9,1.6-1.7,2.3-.8.7-1.8,1.2-3.1,1.6-1.3.4-2.8.6-4.7.6-1.7,0-3.2-.2-4.7-.6-1.4-.4-2.7-1-3.8-1.8-1.1-.8-2-1.9-2.6-3.2s-.9-2.8-.9-4.7h-8.3c0,2.9.6,5.5,1.7,7.6,1.1,2.2,2.5,3.9,4.3,5.3,1.8,1.4,3.9,2.4,6.3,3.1,2.4.7,4.9,1,7.6,1,2.3,0,4.7-.3,6.9-.8,2.3-.5,4.3-1.4,6.1-2.6,1.8-1.2,3.2-2.7,4.3-4.6,1.1-1.9,1.6-4.2,1.6-6.8,0-1.2-.2-2.5-.6-3.7-.2-1-.8-2.2-1.6-3.3h0Z"/>
    <path class="d" d="M449.1,34.4c-2.3,0-4.3.5-6.2,1.6-1.9,1.1-3.4,2.6-4.5,4.5l-.1-.1v-5.1h-7.2v34.4h7.6v-20.3c0-1.2.2-2.4.6-3.5s.9-2.1,1.7-2.9c.7-.8,1.6-1.5,2.6-1.9,1-.5,2.2-.7,3.5-.7,2.3,0,3.9.6,5,1.8s1.6,3.2,1.7,5.9v21.6h7.6v-23.6c0-3.9-1.1-6.8-3.3-8.8-2.2-1.9-5.2-2.9-9-2.9h0Z"/>
    <path class="d" d="M527.1,22.2v17.6h-.2c-.6-.9-1.3-1.7-2.2-2.4-.9-.7-1.8-1.2-2.8-1.7-1-.4-2.1-.8-3.2-1-1.1-.2-2.2-.3-3.3-.3-1.9,0-3.7.3-5.5,1s-3.4,1.8-4.8,3.2c-1.4,1.5-2.5,3.3-3.4,5.6-.8,2.3-1.3,4.9-1.3,8.1,0,2.6.3,5,1,7.2s1.7,4.2,3,5.8c1.3,1.6,3,2.9,5,3.9s4.4,1.4,7.1,1.4c2.2,0,4.2-.4,6.2-1.3,2-.9,3.4-2.3,4.5-4.3h.1v4.7h7.2V22.2h-7.4ZM525.8,56.6c-.4,1.4-.9,2.6-1.7,3.7-.8,1.1-1.8,2-3,2.6-1.2.7-2.7,1-4.3,1s-3-.3-4.3-.9c-1.2-.6-2.2-1.5-2.9-2.5-.8-1-1.4-2.2-1.7-3.6-.4-1.3-.6-2.7-.6-4.1,0-1.5.2-2.9.5-4.3.3-1.4.9-2.7,1.7-3.8.8-1.1,1.8-2,3-2.7,1.2-.7,2.7-1,4.5-1,2.9,0,5.2,1,6.9,3s2.6,4.8,2.6,8.4c-.1,1.5-.3,2.9-.7,4.2Z"/>
    <path class="d" d="M348.4,66.7c-.2-1.3-.2-2.6-.2-4l-.1-9.6v-8.8c0-1.8-.4-3.4-1.2-4.6-.8-1.3-1.9-2.3-3.2-3.1-1.3-.8-2.8-1.4-4.4-1.7-1.6-.3-3.3-.5-5-.5-1.9,0-3.8.2-5.6.5-1.8.4-3.4,1-4.9,1.9-1.4.9-2.6,2.1-3.6,3.5-.9,1.5-1.5,3.3-1.6,5.5h7.6c.2-1.9,1-3.2,2.3-4.1,1.4-.9,3.1-1.3,5.3-1.3.8,0,1.6.1,2.4.2.8.1,1.6.3,2.3.7.7.3,1.3.8,1.7,1.4.5.6.7,1.4.7,2.4,0,1.1-.3,1.9-.8,2.5-.6.6-1.3,1-2.3,1.2-.9.3-2,.5-3.3.6-1.2.1-2.6.3-3.9.6-1.6.2-3.2.4-4.8.8-1.6.3-3,.9-4.3,1.6-1.3.8-2.3,1.8-3.1,3.1s-1.2,3.1-1.2,5.2c0,1.7.3,3.2,1,4.4.6,1.3,1.5,2.3,2.6,3.1,1.1.8,2.3,1.4,3.8,1.9,1.4.4,2.9.6,4.5.6,2,0,4.2-.3,6.4-1,2.2-.7,4-1.7,5.5-3.2,0,.8.6,3.1.6,3.1h7.5c-.3-.6-.6-1.6-.7-2.9ZM340.5,58.2c0,1.2-.3,2.2-.9,3s-1.3,1.5-2.2,2c-.9.5-1.8.9-2.8,1.1-1,.2-1.9.3-2.7.3-.7,0-1.4-.1-2.2-.2-.8-.1-1.6-.4-2.3-.7s-1.3-.8-1.8-1.4c-.5-.6-.7-1.3-.7-2.1,0-1,.2-1.8.5-2.5s.8-1.2,1.4-1.7c.6-.4,1.2-.8,2-1s1.5-.4,2.3-.6c1.7-.3,3.4-.6,5.1-.7,1.7-.2,3.1-.6,4.3-1.4v5.9Z"/>
    <path class="d" d="M255.3,66.7c-.2-1.3-.2-2.6-.2-4l-.1-9.6v-8.8c0-1.8-.4-3.4-1.2-4.6-.8-1.3-1.9-2.3-3.2-3.1-1.3-.8-2.8-1.4-4.4-1.7-1.6-.3-3.3-.5-5-.5-1.9,0-3.8.2-5.6.5-1.8.4-3.5,1-4.9,1.9-1.4.9-2.6,2.1-3.6,3.5-.9,1.5-1.5,3.3-1.6,5.5h7.6c.2-1.9,1-3.2,2.3-4.1,1.4-.9,3.1-1.3,5.3-1.3.8,0,1.6.1,2.4.2.8.1,1.6.3,2.3.7.7.3,1.3.8,1.7,1.4.5.6.7,1.4.7,2.4,0,1.1-.3,1.9-.8,2.5-.6.6-1.3,1-2.3,1.2-.9.3-2,.5-3.3.6-1.2.1-2.5.3-3.9.6-1.6.2-3.2.4-4.8.8-1.6.3-3,.9-4.3,1.6-1.3.8-2.3,1.8-3.1,3.1s-1.2,3.1-1.2,5.2c0,1.7.3,3.2,1,4.4.6,1.3,1.5,2.3,2.6,3.1,1.1.8,2.3,1.4,3.8,1.9,1.4.4,2.9.6,4.5.6,2,0,4.2-.3,6.3-1,2.2-.7,4-1.7,5.5-3.2,0,.8.6,3.1.6,3.1h7.6c-.3-.6-.6-1.6-.7-2.9ZM247.4,58.2c0,1.2-.3,2.2-.9,3-.6.8-1.3,1.5-2.2,2-.9.5-1.8.9-2.8,1.1-1,.2-1.9.3-2.7.3-.7,0-1.4-.1-2.2-.2-.8-.1-1.6-.4-2.3-.7s-1.3-.8-1.8-1.4c-.5-.6-.7-1.3-.7-2.1,0-1,.2-1.8.5-2.5s.8-1.2,1.4-1.7c.6-.4,1.2-.8,2-1,.8-.2,1.5-.4,2.3-.6,1.7-.3,3.4-.6,5.1-.7,1.7-.2,3.1-.6,4.3-1.4v5.9Z"/>
    <path class="d" d="M258.4,84.2h-2.5l-7.1,18.3h2.9l2-5.4h6.8l2,5.4h2.9l-7-18.3ZM254.6,94.6l2.5-6.7,2.4,6.7h-4.9Z"/>
    <path class="d" d="M283,93.9c-.5-.4-1-.7-1.5-1-.6-.3-1.2-.5-1.7-.6l-4.1-1.1c-.3-.1-.6-.1-.9-.3-.2-.1-.4-.2-.6-.4s-.3-.4-.4-.6c-.1-.3-.2-.5-.2-.9,0-.5.1-1,.3-1.3.2-.4.4-.6.8-.9.4-.2.7-.4,1.2-.5.9-.2,2.1-.2,3,.1.5.2.9.4,1.3.6.3.3.6.6.9,1,.2.5.4,1,.4,1.5v.5h2.7v-.6c0-.9-.2-1.8-.6-2.6-.3-.7-.8-1.3-1.5-1.9-.6-.5-1.3-.8-2.2-1.1-.8-.2-1.6-.4-2.5-.4-1.3,0-2.3.2-3.1.6s-1.5.8-2,1.4c-.5.6-.8,1.2-1,1.8s-.2,1.1-.2,1.6c0,.8.1,1.4.4,1.9.2.5.6,1,.9,1.3.4.4.8.6,1.4.9.5.2,1,.4,1.5.5l3.7,1c.3.1.7.2,1.1.3s.7.3,1,.5.5.5.7.8c.2.2.2.5.2,1s-.1.9-.3,1.3c-.3.4-.6.7-1,.9-.4.3-.8.4-1.3.5-1.3.3-2.2.2-3.3,0-.6-.2-1.1-.4-1.6-.7-.4-.3-.7-.7-1-1.2h0c-.2-.5-.4-1.2-.3-2v-.6h-2.7v.5c0,1.1.1,2.1.4,3,.4.8.9,1.5,1.5,2.1.6.5,1.4.9,2.4,1.2.9.3,1.8.4,2.9.4,1,0,1.9-.1,2.7-.3.8-.2,1.4-.5,1.9-.8s1-.7,1.3-1.1c.3-.5.6-.9.7-1.2.2-.4.3-.8.3-1.2v-.2c0-.2.1-.4.1-.6,0-.8-.1-1.4-.4-2-.5-.2-.9-.7-1.3-1.1h0Z"/>
    <path class="d" d="M303.3,93.9c-.5-.4-1-.7-1.5-1-.6-.3-1.2-.5-1.7-.6l-4.1-1.1c-.3-.1-.6-.1-.9-.3-.2-.1-.5-.3-.6-.4-.2-.2-.3-.4-.4-.6-.1-.2-.2-.5-.2-.8,0-.5.1-1,.3-1.4.2-.3.4-.6.7-.8.3-.2.7-.4,1.2-.5.9-.2,2.1-.2,3,0,.5.2.9.4,1.3.7s.6.6.9,1c.2.4.3.9.4,1.5v.5h2.7v-.5c0-1-.2-1.8-.6-2.6-.4-.7-.9-1.3-1.5-1.9-.6-.5-1.3-.9-2.2-1.1-.8-.2-1.6-.4-2.5-.4-1.3,0-2.3.2-3.1.6s-1.4.8-2,1.4c-.5.6-.8,1.2-1,1.8s-.3,1.1-.3,1.6c0,.7.1,1.4.4,2,.3.5.6,1,1,1.3s.8.6,1.4.9c.5.2,1,.3,1.5.5l3.7,1c.3.1.7.2,1.1.3s.7.3,1,.5.5.5.7.7c.2.3.2.6.2,1,0,.5-.1.9-.4,1.3-.3.4-.6.7-.9.9-.4.3-.9.4-1.3.5-.5.1-.9.2-1.3.2-.6,0-1.3-.1-2-.2-.6-.1-1.1-.4-1.5-.7s-.8-.7-1-1.2-.3-1.2-.3-2v-.5h-2.7v.5c0,1.2.1,2.2.5,3,.4.9.9,1.5,1.5,2s1.4.9,2.4,1.2c.9.3,1.8.4,2.9.4,1,0,1.9-.1,2.7-.3.7-.2,1.4-.5,1.9-.8s.9-.7,1.3-1.1c.3-.4.5-.8.7-1.2s.3-.8.3-1.2c0-.3.1-.6.1-.8,0-.8-.1-1.5-.4-2-.6-.4-.9-.9-1.4-1.3h0Z"/>
    <path class="d" d="M323,95.4c0,.9-.1,1.7-.3,2.4-.2.6-.5,1.1-.8,1.5-.4.4-.8.7-1.3.8-.6.2-1.2.3-1.9.3s-1.3-.1-1.9-.3c-.5-.2-1-.4-1.3-.8-.4-.4-.6-.9-.8-1.5-.2-.7-.3-1.5-.3-2.4v-11.2h-2.7v11.6c0,.9.1,1.8.4,2.7.3.8.7,1.6,1.3,2.3.6.7,1.3,1.2,2.2,1.6.9.4,2,.6,3.2.6s2.3-.2,3.2-.6c.9-.4,1.7-.9,2.2-1.6.6-.7,1-1.4,1.2-2.3.3-.8.4-1.7.4-2.7v-11.6h-2.7v11.2h-.1Z"/>
    <path class="d" d="M347.2,101.6c.1-.2,0-.6,0-.7-.1-.4-.2-.7-.2-1.1s-.1-.8-.1-1.2l-.1-1.1c0-.6-.1-1.1-.2-1.5-.1-.5-.3-1-.6-1.4-.3-.4-.6-.8-1.1-1,.5-.3,1-.7,1.3-1.2.6-.9.9-1.9.9-3.2,0-.9-.2-1.6-.5-2.2-.3-.7-.7-1.2-1.3-1.6-.5-.4-1.1-.7-1.8-.9-.6-.2-1.3-.3-2.1-.3h-8.2v18.3h2.7v-7.6h5.6c.5,0,1,.1,1.3.3.4.2.6.5.8.9.2.4.3.9.4,1.4.1.6.1,1.2.1,1.8v1.4c0,.3.1.5.1.7s.1.5.3.8l.2.3h3.4l-.9-.9ZM344.2,90.7c-.2.3-.4.6-.6.9-.3.2-.6.4-.9.6-.4.1-.8.2-1.2.2h-5.4v-5.7h5.4c1.1,0,1.8.2,2.3.7s.7,1.2.7,2.1c-.1.5-.1.9-.3,1.2Z"/>
    <path class="d" d="M362.1,84.2h-2.5l-7.1,18.3h2.9l2-5.4h6.8l2,5.4h2.9l-7-18.3ZM358.2,94.6l2.5-6.7,2.4,6.7h-4.9Z"/>
    <polygon class="d" points="386.3 97.5 377.4 84.2 374.8 84.2 374.8 102.5 377.5 102.5 377.5 89.1 386.4 102.5 389 102.5 389 84.2 386.3 84.2 386.3 97.5"/>
    <path class="d" d="M409.3,95.3c-.1.8-.2,1.4-.5,2-.2.6-.6,1.1-1,1.6-.4.4-.9.8-1.5,1-.5.3-1.1.4-1.9.4-1,0-1.9-.2-2.6-.6-.7-.4-1.3-.9-1.8-1.6-.5-.6-.8-1.4-1-2.3-.2-.8-.4-1.7-.4-2.6s.1-1.8.4-2.6c.2-.8.6-1.6,1-2.2.5-.7,1.1-1.2,1.8-1.6.7-.4,1.6-.6,2.6-.6.6,0,1.1.1,1.6.3s.9.4,1.4.7c.4.3.8.7,1,1.2.3.5.5,1,.6,1.6l.1.4h2.7l-.1-.6c-.1-1-.4-1.8-.9-2.6-.4-.8-1-1.4-1.7-1.9s-1.4-.9-2.2-1.1c-2.3-.7-4.5-.4-6.2.4-1.1.5-1.9,1.2-2.7,2.1-.7.9-1.2,1.9-1.6,3-.4,1.2-.5,2.3-.5,3.6,0,1.2.2,2.4.5,3.5s.9,2.1,1.6,3c.8.9,1.6,1.6,2.6,2.1,1.1.5,2.3.8,3.7.8,1,0,2-.2,2.9-.5s1.6-.8,2.3-1.5c.6-.6,1.2-1.4,1.6-2.3.4-1,.7-2,.8-3l.1-.6h-2.7v.5Z"/>
    <polygon class="d" points="421.6 94.3 430.9 94.3 430.9 91.8 421.6 91.8 421.6 86.7 431.5 86.7 431.5 84.2 418.9 84.2 418.9 102.5 431.6 102.5 431.6 100 421.6 100 421.6 94.3"/>
    <path class="d" d="M123.7,100.5v23.2H0v-23.88c1.6.29,3.2.48,4.9.48,5,.1,9.6-.87,13.9-2.6,2.9-1.16,5.6-2.7,8.2-4.53,3.6-2.5,6.8-5.39,9.7-8.57,1.8-1.93,3.4-3.95,5-5.97.7-.96,1.3-1.83,2-2.79,2.3-3.27,4.3-6.55,6.6-9.72.3-.39.6-.77.9-1.16.3-.29.6-.67.9-.96,1-1.06,2.1-1.93,3.3-2.7.8-.58,1.7-1.06,2.7-1.35.4-.1.9-.19,1.3-.29.5,0,1-.1,1.5,0,.3,0,.6.1.9.1,0,0,.01,0,.01,0,.11.06.21.13.33.21.62.44,1.33,1.22,2.26,2.28,27.9,33.31,58.3,38.13,59.3,38.23Z"/>
    <path class="d" d="M0,0v82c3.6-1,6.9-2.6,9.9-4.5,2.35-1.5,4.53-3.3,6.53-5.34,2-2.06,3.82-4.36,5.47-6.86,1-1.5,2-3,2.9-4.6,2.1-3.38,4.09-6.86,6.09-10.34.66-1.15,1.33-2.31,2.01-3.46.6-1,1.2-2.1,1.8-3.1.05-.08.1-.15.13-.22.13-.22.22-.43.37-.58.51-.88,1.07-1.63,1.67-2.26,0,0,0,0,.01,0,.15-.16.3-.31.45-.45.26-.24.52-.46.79-.65.36-.27.72-.49,1.09-.68.17-.09.33-.17.5-.24.05-.01.09-.03.13-.05.22-.09.44-.17.66-.24h.02c.12-.04.24-.07.35-.1.19-.05.38-.07.57-.1.14-.02.28-.06.42-.07.12-.01.23-.02.35-.03.85-.06,1.7.02,2.53.21.33.07.65.16.97.27.32.11.63.23.94.37.16.07.31.15.46.22.46.22.9.48,1.32.77.57.38,1.1.8,1.59,1.26.13.13.26.25.38.38,1.8,1.9,3.5,3.7,5.3,5.6,2.7,2.8,5.3,5.7,8,8.5.23.22.45.51.67.76.07.08.15.16.23.24.7.7,1.5,1.4,2.3,2.1l-.1-.1c25.3,22.7,56,17,57,16.8V0H0ZM44.8,29.9l-9-8.9,9-9,8.9,8.9.1.1-9,8.9Z"/>
    <polygon class="d" points="44.8 12 35.85 20.95 35.8 20.9 44.8 12"/>
    <path class="d" d="M24.8,60.7c-.9,1.6-1.9,3.1-2.9,4.6,1-1.5,1.9-3.1,2.9-4.6Z"/>
    <path class="d" d="M30.89,50.36c-2,3.48-3.99,6.96-6.09,10.34,2.1-3.45,4.08-6.89,6.09-10.34Z"/>
    <path class="d" d="M39.21,38.95c3.72-1.94,8.03-.47,10.81,2.27-2.84-2.66-7.11-4.17-10.81-2.27Z"/>
    <path class="d" d="M66.9,58.9s-.07-.07-.1-.1c.01,0,.02.01.02.01.02.02.05.04.07.06.01.02.01.03.01.03Z"/>
  </g>
</svg>