<?xml version="1.0" encoding="UTF-8"?><svg id="a" xmlns="http://www.w3.org/2000/svg" width="205.36" height="100" viewBox="0 0 205.36 100"><path d="M200.03,35.65l-3.7,14.67-44.86,10.13-4.61,1.04c.88-3.42,1.37-6.95,1.45-10.56l4.26-1.26,47.46-14.02Z" fill="#eaba21"/><path d="M195.16,54.99l-44.59,9.06-1.6.32-3.38.68c-6.21,17.75-23.11,30.47-42.98,30.47s-36.78-12.74-42.99-30.5h-.06s0-.01,0-.01l-3.62-.73-1.33-.27s0,0,0,0l-44.41-9.02,3.39,13.46,45.54,6.2c8.61,15.13,24.87,25.35,43.49,25.35s34.87-10.22,43.47-25.33l45.68-6.22,3.39-13.46Z" fill="#eaba21"/><path d="M58.5,61.49l-4.61-1.04-44.86-10.13-3.7-14.67,47.46,14.02,4.26,1.26c.07,3.61.56,7.15,1.45,10.57Z" fill="#eaba21"/><path d="M205.36,14.49l-54.77,21.42C144.49,15.18,125.29,0,102.61,0s-41.85,15.16-47.96,35.87L0,14.49l4.04,16.05,48.73,15.54s0,0,0,0l4.38,1.4c1.31-23.97,21.16-43.01,45.46-43.01s44.18,19.06,45.46,43.05l2-.64,2.35-.75h0s.04-.01.04-.01c0,0,0,0,0,0l48.86-15.58,4.04-16.05Z" fill="#eaba21"/><path d="M144.33,47.03c-1.49-7.54-4.96-14.41-10.05-19.99-.02.21-.04.42-.07.63-.25,2.05-.8,4.11-1.2,5.72-2.05-.46-4.13-.82-6.23-1.11-2.09-.29-4.2-.5-6.29-.67-.05,0-.1,0-.16-.01.3,4.29.52,8.6.57,12.9-1.4-4.44-3.02-8.8-4.59-13.19-1.01-2.63-2.12-5.27-3.34-7.86-1.22-2.59-2.54-5.13-3.98-7.55.91-.55,1.83-1.07,2.76-1.57.07-.04.14-.07.21-.11.99-.52,2.03-1.03,3.1-1.44,1.15-.44,2.33-.77,3.54-.88.51-.04,1.01.01,1.51.12-2.34-1.08-4.8-1.95-7.34-2.58-7.64-.92-15.25.26-22.14,3.38.19.08.39.17.58.26,1.87.87,3.66,2.04,5.07,2.91-1.07,1.81-2.06,3.68-2.98,5.58-.92,1.9-1.77,3.84-2.58,5.78-.02.05-.04.1-.06.15,4.18,1.04,8.34,2.16,12.45,3.45-4.66-.04-9.3.16-13.96.29-2.81.15-5.67.39-8.51.74-2.84.36-5.66.83-8.41,1.45-.24-1.03-.46-2.07-.64-3.11-.01-.08-.02-.16-.04-.24-.19-1.11-.35-2.25-.41-3.4-.07-1.23-.01-2.45.26-3.64.11-.47.3-.91.55-1.33-1.77,1.92-3.35,4-4.74,6.22-3.2,6.96-4.42,14.52-3.58,22,.14-.16.28-.31.43-.47,1.41-1.51,3.07-2.85,4.33-3.92,1.39,1.58,2.86,3.1,4.39,4.56,1.52,1.46,3.1,2.87,4.7,4.23.04.04.08.07.12.1,2.28-3.65,4.63-7.26,7.12-10.77-1.48,4.42-2.73,8.9-4.04,13.36-.73,2.72-1.38,5.51-1.92,8.32-.54,2.81-.96,5.64-1.22,8.45-1.06-.09-2.11-.2-3.16-.35-.08-.01-.16-.03-.24-.04-1.11-.17-2.25-.36-3.36-.66-1.19-.31-2.34-.75-3.38-1.37-.43-.26-.8-.59-1.13-.96,1.3,2.31,2.82,4.49,4.53,6.5,5.62,5.17,12.42,8.65,19.77,10.16-.11-.18-.21-.36-.32-.55-1-1.81-1.77-3.8-2.39-5.33,1.93-.83,3.83-1.76,5.69-2.76,1.86-1,3.69-2.06,5.48-3.16.05-.03.09-.05.14-.08-2.77-3.3-5.47-6.65-8.04-10.1,3.74,2.77,7.62,5.34,11.46,7.97,2.36,1.54,4.82,3.02,7.32,4.4,2.51,1.38,5.07,2.65,7.66,3.77-.41.98-.85,1.94-1.31,2.89-.04.07-.07.14-.11.21-.5,1-1.04,2.03-1.66,2.99-.67,1.03-1.43,1.99-2.35,2.79-.4.34-.85.6-1.33.8,2.6-.52,5.12-1.28,7.52-2.25,6.71-3.75,12.17-9.17,15.9-15.74-.2.05-.41.09-.62.13-2.03.4-4.16.51-5.81.63-.19-2.09-.49-4.18-.87-6.27-.37-2.08-.82-4.15-1.31-6.19-.01-.05-.02-.1-.04-.16-3.99,1.61-8.01,3.15-12.1,4.53,3.79-2.7,7.43-5.6,11.12-8.44,2.19-1.77,4.36-3.65,6.45-5.6,2.09-1.96,4.09-4,5.95-6.12.8.69,1.59,1.4,2.34,2.14.06.06.11.11.17.17.8.79,1.61,1.61,2.33,2.51.78.95,1.45,1.98,1.93,3.09.2.48.3.98.35,1.49.19-1.6.29-3.24.29-4.89,0-.99-.04-1.97-.1-2.94Z" fill="#fff"/><path d="M94.59,37.99c5.45-.1,10.9-.12,16.35-.01,1.89,5.17,3.63,10.4,5.25,15.66h0c-4.38,3.46-8.84,6.78-13.48,9.88h0c-4.52-3.21-9-6.44-13.35-9.88h0c1.62-5.26,3.36-10.47,5.23-15.65h0Z" fill="#eaba21"/></svg>