<svg id="line" height="512" viewBox="0 0 64 64" width="512" xmlns="http://www.w3.org/2000/svg"><path d="m59.92578 31.39062-4.17334-5.43457c-.18896-.24609-.48242-.39062-.79297-.39062h-7.35187l5.19464-5.16895c.22168-.2207.32715-.53223.28564-.8418l-.91064-6.7793c-.06006-.44727-.41211-.79883-.85938-.8584 0 0-6.81299-.90625-6.81299-.90625-.30908-.04297-.61719.06348-.8374.28223l-5.20605 5.18054v-7.32019c0-.3125-.146-.60645-.39453-.7959l-5.46143-4.15332c-.3584-.27148-.85254-.27148-1.21094 0l-5.46143 4.15332c-.24854.18945-.39453.4834-.39453.7959v7.32013l-4.93701-4.9129c-.20947-.20898-.49512-.31543-.79541-.28711l-7.08203.63867c-.48096.04395-.8623.4248-.90625.90527l-.6416 7.04688c-.02686.29688.07959.58984.29053.7998l4.92566 4.90137h-6.97156c-.2959 0-.57666.13086-.7666.35742 0 0-4.55371 5.43457-4.55371 5.43457-.31104.37207-.31104.91309 0 1.28516 0 0 4.55371 5.43457 4.55371 5.43457.18994.22656.4707.35742.7666.35742h6.97156s-4.92566 4.90137-4.92566 4.90137c-.21094.20996-.31738.50293-.29053.7998 0 0 .6416 7.04687.6416 7.04688.04395.48047.42529.86133.90625.90527l7.08203.63867c.30029.02832.58594-.07812.79541-.28711l4.93701-4.9129v6.9422c0 .29785.13232.58008.36133.76953l5.46143 4.53125c.37044.30707.9069.30721 1.27734 0 0 0 5.46143-4.53125 5.46143-4.53125.229-.18945.36133-.47168.36133-.76953v-6.94226l5.20605 5.18054c.22022.21935.53235.32334.8374.28223 0 0 6.81299-.90625 6.81299-.90625.44727-.05957.79932-.41113.85938-.8584l.91064-6.7793c.0415-.30957-.06396-.62109-.28564-.8418l-5.19464-5.16895h7.35187c.31055 0 .604-.14453.79297-.39062l4.17334-5.43457c.27588-.35938.27588-.85938 0-1.21875zm-15.19629-18.33203 5.56738.74023.74268 5.53027-6.2674 6.23633h-6.31073v-6.26959zm-5.71143 19.65039 3.74414 3.72559h-5.30078c-.55225 0-1 .44727-1 1v5.27942l-3.75586-3.73743c-.19531-.19434-.4502-.29102-.70557-.29102s-.51025.09668-.70557.29102l-3.75586 3.73761v-5.2796c0-.55273-.44775-1-1-1h-5.30072s3.74408-3.72559 3.74408-3.72559c.18848-.1875.29443-.44336.29443-.70898s-.10596-.52148-.29443-.70898l-3.74408-3.72559h5.30072c.55225 0 1-.44727 1-1v-5.2796l3.75586 3.73761c.39062.38867 1.02051.38867 1.41113 0l3.75586-3.73743v5.27942c0 .55273.44775 1 1 1h5.30078l-3.74414 3.72559c-.38981.37285-.38902 1.04514 0 1.41797zm-11.47949-23.05957 4.46143-3.39355 4.46143 3.39355v8.81433l-4.46143 4.43958-4.46143-4.43964zm-14.32764 9.92871.52344-5.74902 5.78711-.52148 6.01709 5.98792v6.2699h-6.31061l-6.01703-5.9873zm-3.32324 16.85645-3.71582-4.43457 3.71582-4.43457h8.51465l4.45654 4.43457-4.45654 4.43457h-8.51464zm9.63379 14.25781-5.78711-.52148-.52344-5.74902 6.01703-5.9873h6.31061v6.2699l-6.01709 5.98792zm16.93994 3.30664-4.46143 3.70117-4.46143-3.70117v-8.46271l4.46143-4.43964 4.46143 4.43958zm14.57812-9.32812-.74268 5.53027-5.56738.74023-6.26807-6.23724v-6.26959h6.31073zm3.42725-8.23633h-8.86908l-4.4566-4.43457 4.4566-4.43457h8.86908l3.40527 4.43457z"/></svg>